<svg version="1.1" viewBox="0 0 1100 416" xmlns="http://www.w3.org/2000/svg"><defs><clipPath id="a"><path d="m0 312h825v-312h-825z"/></clipPath></defs><g transform="matrix(1.3333 0 0 -1.3333 0 416)"><path d="m0 0h825v312h-825z" fill="#55c500"/><g clip-path="url(#a)"><g transform="translate(343.2 239.82)"><path d="m0 0c-10.173 0-18.419-8.247-18.419-18.419 0-10.173 8.246-18.42 18.419-18.42s18.419 8.247 18.419 18.42c0 10.172-8.246 18.419-18.419 18.419" fill="#fff"/></g><g transform="translate(519.41 248.57)"><path d="m0 0h-30.262l1e-3 -39.555h-20.369v-28.351h20.369v-57.099c0-11.16 1.416-20.293 4.252-27.405 2.836-7.108 6.682-12.709 11.542-16.804 4.86-4.098 10.572-6.909 17.147-8.436 6.565-1.532 11.043-2.298 18.511-2.298h22.745v27h-19.64c-3.328 0-6.458 0.427-9.381 1.283-2.922 0.853-5.514 2.339-7.762 4.455-2.248 2.111-4.028 4.992-5.332 8.64-1.303 3.642-1.958 8.254-1.958 13.835v56.83h44.415v28.349h-44.278z" fill="#fff"/></g><g transform="translate(247.16 135.34)"><path d="m0 0c-3.302-7.862-7.818-14.687-13.555-20.462-5.736-5.78-12.471-10.321-20.206-13.623s-16.029-4.952-24.895-4.952c-8.778 0-17.008 1.65-24.699 4.952s-14.402 7.843-20.138 13.623c-5.736 5.775-10.277 12.6-13.623 20.462-3.345 7.866-5.016 16.36-5.016 25.482 0 9.126 1.671 17.641 5.016 25.551 3.346 7.906 7.887 14.75 13.623 20.53 5.736 5.776 12.447 10.317 20.138 13.619 7.691 3.301 15.921 4.952 24.699 4.952 8.866 0 17.16-1.651 24.895-4.952 7.735-3.302 14.47-7.843 20.206-13.619 5.737-5.78 10.253-12.624 13.555-20.53 3.302-7.91 4.953-16.425 4.953-25.551 0-9.122-1.651-17.616-4.953-25.482m37.411 25.614c0 12.948-2.523 25.047-7.563 36.303-5.041 11.253-11.904 21.05-20.594 29.393-8.691 8.342-18.879 14.901-30.564 19.682-11.691 4.777-24.139 7.167-37.346 7.167-13.295 0-25.766-2.39-37.406-7.167-11.648-4.781-21.793-11.34-30.439-19.682-8.646-8.343-15.49-18.14-20.526-29.393-5.041-11.256-7.563-23.355-7.563-36.303 0-12.859 2.522-24.919 7.563-36.171 5.036-11.253 11.88-21.074 20.526-29.456 8.646-8.39 18.791-14.99 30.439-19.814 11.64-4.82 24.111-7.236 37.406-7.236 9.21 0 18.008 1.156 26.394 3.455 8.387 2.302 16.273 5.628 23.66 9.972l18.466-18.631c6.051-6.105 15.922-6.097 21.964 0.017 5.972 6.044 5.943 15.775-0.064 21.784l-16.642 16.645c6.951 8.079 12.403 17.16 16.357 27.242 3.953 10.076 5.932 20.809 5.932 32.193" fill="#fff"/></g><g transform="translate(700.15 119.56)"><path d="m0 0c-2.172-5.13-5.11-9.55-8.821-13.261-3.714-3.714-8.074-6.592-13.076-8.633-5.004-2.044-10.345-3.066-16.016-3.066-5.756 0-11.135 1.022-16.139 3.066-5.007 2.041-9.385 4.919-13.137 8.633-3.753 3.711-6.715 8.151-8.883 13.326-2.172 5.168-3.254 10.84-3.254 17.013 0 6.174 1.063 11.803 3.188 16.895 2.13 5.084 5.046 9.485 8.76 13.199 3.711 3.71 8.069 6.588 13.073 8.633 5.007 2.042 10.387 3.066 16.142 3.066 5.756 0 11.136-1.044 16.139-3.131 5.007-2.083 9.385-4.961 13.137-8.633 3.757-3.669 6.715-8.069 8.887-13.2 2.168-5.13 3.25-10.739 3.25-16.829 0-6.254-1.082-11.948-3.25-17.078m6.255 81.39-1.754-14.139c-2.502 2.421-5.36 4.735-8.568 6.945-3.211 2.21-6.738 4.129-10.575 5.756-3.837 1.626-7.923 2.92-12.259 3.879-4.34 0.959-8.967 1.439-13.89 1.439-10.345 0-19.749-1.796-28.214-5.38-8.468-3.587-15.724-8.468-21.77-14.638-6.047-6.174-10.721-13.41-14.013-21.71-3.296-8.299-4.942-17.162-4.942-26.586 0-9.428 1.666-18.291 5.003-26.591 3.334-8.299 8.008-15.536 14.013-21.706 6.009-6.174 13.241-11.031 21.709-14.576 8.465-3.546 17.831-5.318 28.091-5.318 4.835 0 9.447 0.479 13.825 1.439 4.378 0.959 8.464 2.252 12.259 3.879s7.321 3.522 10.575 5.694c3.254 2.168 6.17 4.504 8.756 7.006l1.754-14.139h26.025v128.75z" fill="#fff"/></g><path d="m328.36 72.06h29.674v110.31h-29.674z" fill="#fff"/><path d="m402.24 72.06h29.675v110.31h-29.675z" fill="#fff"/><g transform="translate(417.07 239.82)"><path d="m0 0c-10.173 0-18.419-8.247-18.419-18.419 0-10.173 8.246-18.42 18.419-18.42s18.42 8.247 18.42 18.42c0 10.172-8.247 18.419-18.42 18.419" fill="#fff"/></g></g></g></svg>
